<mxfile host="app.diagrams.net" modified="2021-08-31T21:42:36.492Z" agent="5.0 (Macintosh; Intel Mac OS X 10_15_7) AppleWebKit/605.1.15 (KHTML, like Gecko) Version/14.1.1 Safari/605.1.15" etag="m06kM-60mCmLAYOnauS0" version="15.0.3" type="github" pages="2">
  <diagram id="6a731a19-8d31-9384-78a2-239565b7b9f0" name="Page-1">
    <mxGraphModel dx="3235" dy="1185" grid="1" gridSize="10" guides="1" tooltips="1" connect="1" arrows="1" fold="1" page="1" pageScale="1" pageWidth="1169" pageHeight="827" background="none" math="0" shadow="0">
      <root>
        <mxCell id="0" />
        <mxCell id="1" parent="0" />
        <mxCell id="1746" value="" style="edgeStyle=none;rounded=0;jumpStyle=none;html=1;shadow=0;labelBackgroundColor=none;startArrow=none;startFill=0;endArrow=classic;endFill=1;jettySize=auto;orthogonalLoop=1;strokeColor=#2F5B7C;strokeWidth=3;fontFamily=Helvetica;fontSize=16;fontColor=#23445D;spacing=5;" parent="1" source="1749" target="1771" edge="1">
          <mxGeometry relative="1" as="geometry" />
        </mxCell>
        <mxCell id="1749" value="Now - Accessible Info For Analyst When Performing IM Needs To Check:" style="rounded=1;whiteSpace=wrap;html=1;shadow=0;labelBackgroundColor=none;strokeColor=none;strokeWidth=3;fillColor=#2F5B7C;fontFamily=Helvetica;fontSize=16;fontColor=#FFFFFF;align=center;fontStyle=1;spacing=5;arcSize=7;perimeterSpacing=2;" parent="1" vertex="1">
          <mxGeometry x="-185" y="352.25" width="185" height="119.5" as="geometry" />
        </mxCell>
        <mxCell id="7ki3enB7MW0zF5Qcdzz0-1780" value="" style="edgeStyle=orthogonalEdgeStyle;rounded=0;orthogonalLoop=1;jettySize=auto;html=1;fillColor=#fa6800;strokeColor=#F08705;strokeWidth=3;" edge="1" parent="1" source="1764" target="7ki3enB7MW0zF5Qcdzz0-1779">
          <mxGeometry relative="1" as="geometry" />
        </mxCell>
        <mxCell id="-VjCx7Spr8wXFaIi6Dk--1779" style="edgeStyle=orthogonalEdgeStyle;rounded=0;orthogonalLoop=1;jettySize=auto;html=1;strokeColor=#F08705;strokeWidth=3;" edge="1" parent="1" source="1764" target="7ki3enB7MW0zF5Qcdzz0-1788">
          <mxGeometry relative="1" as="geometry">
            <Array as="points">
              <mxPoint x="315" y="500" />
              <mxPoint x="315" y="500" />
            </Array>
          </mxGeometry>
        </mxCell>
        <mxCell id="-VjCx7Spr8wXFaIi6Dk--1780" style="edgeStyle=orthogonalEdgeStyle;rounded=0;orthogonalLoop=1;jettySize=auto;html=1;strokeColor=#F08705;strokeWidth=3;" edge="1" parent="1" target="7ki3enB7MW0zF5Qcdzz0-1791">
          <mxGeometry relative="1" as="geometry">
            <mxPoint x="390" y="440" as="sourcePoint" />
            <Array as="points">
              <mxPoint x="380" y="440" />
              <mxPoint x="380" y="460" />
              <mxPoint x="535" y="460" />
            </Array>
          </mxGeometry>
        </mxCell>
        <mxCell id="1764" value="Current Analyst Tools" style="rounded=1;whiteSpace=wrap;html=1;shadow=0;labelBackgroundColor=none;strokeColor=none;strokeWidth=3;fillColor=#F08705;fontFamily=Helvetica;fontSize=14;fontColor=#FFFFFF;align=center;spacing=5;fontStyle=1;arcSize=7;perimeterSpacing=2;" parent="1" vertex="1">
          <mxGeometry x="240" y="385.5" width="150" height="60" as="geometry" />
        </mxCell>
        <mxCell id="7ki3enB7MW0zF5Qcdzz0-1799" value="" style="edgeStyle=orthogonalEdgeStyle;rounded=0;orthogonalLoop=1;jettySize=auto;html=1;strokeWidth=3;fillColor=#e3c800;strokeColor=#B09500;" edge="1" parent="1" source="1765" target="7ki3enB7MW0zF5Qcdzz0-1798">
          <mxGeometry relative="1" as="geometry" />
        </mxCell>
        <mxCell id="1765" value="Help Central" style="rounded=1;whiteSpace=wrap;html=1;shadow=0;labelBackgroundColor=none;strokeColor=none;strokeWidth=3;fillColor=#f5af58;fontFamily=Helvetica;fontSize=14;fontColor=#FFFFFF;align=center;spacing=5;arcSize=7;perimeterSpacing=2;" parent="1" vertex="1">
          <mxGeometry x="430" y="240" width="150" height="60" as="geometry" />
        </mxCell>
        <mxCell id="1766" value="" style="edgeStyle=none;rounded=0;jumpStyle=none;html=1;shadow=0;labelBackgroundColor=none;startArrow=none;startFill=0;endArrow=classic;endFill=1;jettySize=auto;orthogonalLoop=1;strokeWidth=3;fontFamily=Helvetica;fontSize=14;fontColor=#FFFFFF;spacing=5;strokeColor=#F08705;" parent="1" source="1764" target="1765" edge="1">
          <mxGeometry relative="1" as="geometry" />
        </mxCell>
        <mxCell id="7ki3enB7MW0zF5Qcdzz0-1794" value="" style="edgeStyle=orthogonalEdgeStyle;rounded=0;orthogonalLoop=1;jettySize=auto;html=1;fillColor=#e3c800;strokeColor=#B09500;strokeWidth=4;" edge="1" parent="1" source="1769" target="7ki3enB7MW0zF5Qcdzz0-1793">
          <mxGeometry relative="1" as="geometry" />
        </mxCell>
        <mxCell id="1769" value="Radar" style="rounded=1;whiteSpace=wrap;html=1;shadow=0;labelBackgroundColor=none;strokeColor=none;strokeWidth=3;fillColor=#f5af58;fontFamily=Helvetica;fontSize=14;fontColor=#FFFFFF;align=center;spacing=5;arcSize=7;perimeterSpacing=2;" parent="1" vertex="1">
          <mxGeometry x="50" y="240" width="150" height="60" as="geometry" />
        </mxCell>
        <mxCell id="1770" value="" style="edgeStyle=none;rounded=0;jumpStyle=none;html=1;shadow=0;labelBackgroundColor=none;startArrow=none;startFill=0;endArrow=classic;endFill=1;jettySize=auto;orthogonalLoop=1;strokeWidth=3;fontFamily=Helvetica;fontSize=14;fontColor=#FFFFFF;spacing=5;strokeColor=#F08705;" parent="1" source="1764" target="1769" edge="1">
          <mxGeometry relative="1" as="geometry" />
        </mxCell>
        <mxCell id="1771" value="Goal - Use Slack Channel and Search To Document Related Items and Cut Down Time Researching:" style="rounded=1;whiteSpace=wrap;html=1;shadow=0;labelBackgroundColor=none;strokeColor=none;strokeWidth=3;fillColor=#12aab5;fontFamily=Helvetica;fontSize=14;fontColor=#FFFFFF;align=center;spacing=5;fontStyle=1;arcSize=7;perimeterSpacing=2;" parent="1" vertex="1">
          <mxGeometry x="660" y="357.5" width="240" height="122.5" as="geometry" />
        </mxCell>
        <mxCell id="1772" value="Suggested Splunk Queries" style="rounded=1;whiteSpace=wrap;html=1;shadow=0;labelBackgroundColor=none;strokeColor=none;strokeWidth=3;fillColor=#61c6ce;fontFamily=Helvetica;fontSize=14;fontColor=#FFFFFF;align=center;spacing=5;fontStyle=0;arcSize=7;perimeterSpacing=2;" parent="1" vertex="1">
          <mxGeometry x="1169" y="520" width="150" height="60" as="geometry" />
        </mxCell>
        <mxCell id="1773" value="" style="edgeStyle=none;rounded=1;jumpStyle=none;html=1;shadow=0;labelBackgroundColor=none;startArrow=none;startFill=0;jettySize=auto;orthogonalLoop=1;strokeColor=#12AAB5;strokeWidth=3;fontFamily=Helvetica;fontSize=14;fontColor=#FFFFFF;spacing=5;fontStyle=1;fillColor=#b0e3e6;" parent="1" source="1771" target="1772" edge="1">
          <mxGeometry relative="1" as="geometry" />
        </mxCell>
        <mxCell id="1774" value="Suggested POS KT Articles Links" style="rounded=1;whiteSpace=wrap;html=1;shadow=0;labelBackgroundColor=none;strokeColor=none;strokeWidth=3;fillColor=#61c6ce;fontFamily=Helvetica;fontSize=14;fontColor=#FFFFFF;align=center;spacing=5;fontStyle=0;arcSize=7;perimeterSpacing=2;" parent="1" vertex="1">
          <mxGeometry x="1169" y="413.5" width="150" height="60" as="geometry" />
        </mxCell>
        <mxCell id="1775" value="" style="edgeStyle=none;rounded=1;jumpStyle=none;html=1;shadow=0;labelBackgroundColor=none;startArrow=none;startFill=0;jettySize=auto;orthogonalLoop=1;strokeColor=#12AAB5;strokeWidth=3;fontFamily=Helvetica;fontSize=14;fontColor=#FFFFFF;spacing=5;fontStyle=1;fillColor=#b0e3e6;" parent="1" source="1771" target="1774" edge="1">
          <mxGeometry relative="1" as="geometry" />
        </mxCell>
        <mxCell id="1776" value="Incidents" style="rounded=1;whiteSpace=wrap;html=1;shadow=0;labelBackgroundColor=none;strokeColor=none;strokeWidth=3;fillColor=#61c6ce;fontFamily=Helvetica;fontSize=14;fontColor=#FFFFFF;align=center;spacing=5;fontStyle=0;arcSize=7;perimeterSpacing=2;" parent="1" vertex="1">
          <mxGeometry x="1169" y="320.5" width="150" height="60" as="geometry" />
        </mxCell>
        <mxCell id="1777" value="" style="edgeStyle=none;rounded=1;jumpStyle=none;html=1;shadow=0;labelBackgroundColor=none;startArrow=none;startFill=0;jettySize=auto;orthogonalLoop=1;strokeColor=#12AAB5;strokeWidth=3;fontFamily=Helvetica;fontSize=14;fontColor=#FFFFFF;spacing=5;fontStyle=1;fillColor=#b0e3e6;" parent="1" source="1771" target="1776" edge="1">
          <mxGeometry relative="1" as="geometry" />
        </mxCell>
        <mxCell id="1778" value="Created Radars" style="rounded=1;whiteSpace=wrap;html=1;shadow=0;labelBackgroundColor=none;strokeColor=none;strokeWidth=3;fillColor=#61c6ce;fontFamily=Helvetica;fontSize=14;fontColor=#FFFFFF;align=center;spacing=5;fontStyle=0;arcSize=7;perimeterSpacing=2;" parent="1" vertex="1">
          <mxGeometry x="1169" y="210" width="150" height="60" as="geometry" />
        </mxCell>
        <mxCell id="1779" value="" style="edgeStyle=none;rounded=1;jumpStyle=none;html=1;shadow=0;labelBackgroundColor=none;startArrow=none;startFill=0;jettySize=auto;orthogonalLoop=1;strokeColor=#12AAB5;strokeWidth=3;fontFamily=Helvetica;fontSize=14;fontColor=#FFFFFF;spacing=5;fontStyle=1;fillColor=#b0e3e6;" parent="1" source="1771" target="1778" edge="1">
          <mxGeometry relative="1" as="geometry" />
        </mxCell>
        <mxCell id="7ki3enB7MW0zF5Qcdzz0-1797" value="" style="edgeStyle=orthogonalEdgeStyle;rounded=0;orthogonalLoop=1;jettySize=auto;html=1;strokeWidth=3;fillColor=#e3c800;strokeColor=#B09500;" edge="1" parent="1" source="7ki3enB7MW0zF5Qcdzz0-1779" target="7ki3enB7MW0zF5Qcdzz0-1795">
          <mxGeometry relative="1" as="geometry" />
        </mxCell>
        <mxCell id="7ki3enB7MW0zF5Qcdzz0-1779" value="SQL Developer" style="rounded=1;whiteSpace=wrap;html=1;shadow=0;labelBackgroundColor=none;strokeColor=none;strokeWidth=3;fillColor=#f5af58;fontFamily=Helvetica;fontSize=14;fontColor=#FFFFFF;align=center;spacing=5;arcSize=7;perimeterSpacing=2;" vertex="1" parent="1">
          <mxGeometry x="240" y="240" width="150" height="64.5" as="geometry" />
        </mxCell>
        <mxCell id="7ki3enB7MW0zF5Qcdzz0-1801" value="" style="edgeStyle=orthogonalEdgeStyle;rounded=0;orthogonalLoop=1;jettySize=auto;html=1;fillColor=#e3c800;strokeColor=#B09500;strokeWidth=4;" edge="1" parent="1" source="7ki3enB7MW0zF5Qcdzz0-1781" target="7ki3enB7MW0zF5Qcdzz0-1800">
          <mxGeometry relative="1" as="geometry">
            <Array as="points">
              <mxPoint x="160" y="590" />
              <mxPoint x="160" y="590" />
            </Array>
          </mxGeometry>
        </mxCell>
        <mxCell id="7ki3enB7MW0zF5Qcdzz0-1781" value="Alexandria" style="rounded=1;whiteSpace=wrap;html=1;shadow=0;labelBackgroundColor=none;strokeColor=none;strokeWidth=3;fillColor=#f5af58;fontFamily=Helvetica;fontSize=14;fontColor=#FFFFFF;align=center;spacing=5;arcSize=7;perimeterSpacing=2;" vertex="1" parent="1">
          <mxGeometry x="85" y="510" width="150" height="60" as="geometry" />
        </mxCell>
        <mxCell id="7ki3enB7MW0zF5Qcdzz0-1785" value="" style="edgeStyle=none;rounded=0;jumpStyle=none;html=1;shadow=0;labelBackgroundColor=none;startArrow=none;startFill=0;endArrow=classic;endFill=1;jettySize=auto;orthogonalLoop=1;strokeWidth=3;fontFamily=Helvetica;fontSize=14;fontColor=#FFFFFF;spacing=5;entryX=0.5;entryY=0;entryDx=0;entryDy=0;fillColor=#f0a30a;strokeColor=#F08705;" edge="1" parent="1" target="7ki3enB7MW0zF5Qcdzz0-1781">
          <mxGeometry relative="1" as="geometry">
            <mxPoint x="270" y="448" as="sourcePoint" />
            <mxPoint x="315" y="490" as="targetPoint" />
          </mxGeometry>
        </mxCell>
        <mxCell id="7ki3enB7MW0zF5Qcdzz0-1803" value="" style="edgeStyle=orthogonalEdgeStyle;rounded=0;orthogonalLoop=1;jettySize=auto;html=1;fillColor=#e3c800;strokeColor=#B09500;strokeWidth=3;" edge="1" parent="1" target="7ki3enB7MW0zF5Qcdzz0-1802">
          <mxGeometry relative="1" as="geometry">
            <mxPoint x="335" y="573" as="sourcePoint" />
            <Array as="points">
              <mxPoint x="335" y="573" />
            </Array>
          </mxGeometry>
        </mxCell>
        <mxCell id="7ki3enB7MW0zF5Qcdzz0-1788" value="Splunk and its Many Dashboards" style="rounded=1;whiteSpace=wrap;html=1;shadow=0;labelBackgroundColor=none;strokeColor=none;strokeWidth=3;fillColor=#f5af58;fontFamily=Helvetica;fontSize=14;fontColor=#FFFFFF;align=center;spacing=5;arcSize=7;perimeterSpacing=2;" vertex="1" parent="1">
          <mxGeometry x="260" y="510" width="150" height="60.5" as="geometry" />
        </mxCell>
        <mxCell id="7ki3enB7MW0zF5Qcdzz0-1805" value="" style="edgeStyle=orthogonalEdgeStyle;rounded=0;orthogonalLoop=1;jettySize=auto;html=1;strokeColor=#B09500;strokeWidth=3;fillColor=#e3c800;" edge="1" parent="1" source="7ki3enB7MW0zF5Qcdzz0-1791" target="7ki3enB7MW0zF5Qcdzz0-1804">
          <mxGeometry relative="1" as="geometry" />
        </mxCell>
        <mxCell id="7ki3enB7MW0zF5Qcdzz0-1791" value="POS Admin" style="rounded=1;whiteSpace=wrap;html=1;shadow=0;labelBackgroundColor=none;strokeColor=none;strokeWidth=3;fillColor=#f5af58;fontFamily=Helvetica;fontSize=14;fontColor=#FFFFFF;align=center;spacing=5;arcSize=7;perimeterSpacing=2;" vertex="1" parent="1">
          <mxGeometry x="460" y="510" width="150" height="60.5" as="geometry" />
        </mxCell>
        <mxCell id="7ki3enB7MW0zF5Qcdzz0-1793" value="Contains &quot;Bugs&quot;&lt;br&gt;or &quot;Known Issues." style="shape=trapezoid;perimeter=trapezoidPerimeter;whiteSpace=wrap;html=1;fixedSize=1;rounded=1;shadow=0;fontSize=14;fontColor=#000000;strokeColor=#B09500;strokeWidth=3;fillColor=#e3c800;spacing=5;arcSize=7;" vertex="1" parent="1">
          <mxGeometry x="55" y="110" width="140" height="70.5" as="geometry" />
        </mxCell>
        <mxCell id="7ki3enB7MW0zF5Qcdzz0-1795" value="Access to DB info(TXN, Item, etc)" style="shape=trapezoid;perimeter=trapezoidPerimeter;whiteSpace=wrap;html=1;fixedSize=1;rounded=1;shadow=0;fontSize=14;fontColor=#000000;strokeColor=#B09500;strokeWidth=3;fillColor=#e3c800;spacing=5;arcSize=7;" vertex="1" parent="1">
          <mxGeometry x="245" y="110" width="140" height="60" as="geometry" />
        </mxCell>
        <mxCell id="7ki3enB7MW0zF5Qcdzz0-1798" value="Incidents are accessed here" style="shape=trapezoid;perimeter=trapezoidPerimeter;whiteSpace=wrap;html=1;fixedSize=1;rounded=1;shadow=0;fontSize=14;fontColor=#000000;strokeColor=#B09500;strokeWidth=3;fillColor=#e3c800;spacing=5;arcSize=7;" vertex="1" parent="1">
          <mxGeometry x="435" y="110" width="140" height="60" as="geometry" />
        </mxCell>
        <mxCell id="7ki3enB7MW0zF5Qcdzz0-1800" value="POS Knowledge Base" style="shape=trapezoid;perimeter=trapezoidPerimeter;whiteSpace=wrap;html=1;fixedSize=1;rounded=1;shadow=0;fontSize=14;fontColor=#000000;strokeColor=#B09500;strokeWidth=3;fillColor=#e3c800;spacing=5;arcSize=7;" vertex="1" parent="1">
          <mxGeometry x="75" y="650.5" width="170" height="60" as="geometry" />
        </mxCell>
        <mxCell id="7ki3enB7MW0zF5Qcdzz0-1802" value="Powerful Log Indexing Tool&amp;nbsp;" style="shape=trapezoid;perimeter=trapezoidPerimeter;whiteSpace=wrap;html=1;fixedSize=1;rounded=1;shadow=0;fontSize=14;fontColor=#000000;strokeColor=#B09500;strokeWidth=3;fillColor=#e3c800;spacing=5;arcSize=7;" vertex="1" parent="1">
          <mxGeometry x="270" y="650.5" width="170" height="60" as="geometry" />
        </mxCell>
        <mxCell id="7ki3enB7MW0zF5Qcdzz0-1804" value="Allows us to see receipts and eJournals" style="shape=trapezoid;perimeter=trapezoidPerimeter;whiteSpace=wrap;html=1;fixedSize=1;rounded=1;shadow=0;fontSize=14;fontColor=#000000;strokeColor=#B09500;strokeWidth=3;fillColor=#e3c800;spacing=5;arcSize=7;" vertex="1" parent="1">
          <mxGeometry x="450" y="650.5" width="170" height="60" as="geometry" />
        </mxCell>
      </root>
    </mxGraphModel>
  </diagram>
  <diagram id="eVLNBdlxJTAvzDSH0_ai" name="Page-2">
    <mxGraphModel dx="2066" dy="1185" grid="1" gridSize="10" guides="1" tooltips="1" connect="1" arrows="1" fold="1" page="1" pageScale="1" pageWidth="850" pageHeight="1100" math="0" shadow="0">
      <root>
        <mxCell id="NkDDZCm0FtuqKb3ODF25-0" />
        <mxCell id="NkDDZCm0FtuqKb3ODF25-1" parent="NkDDZCm0FtuqKb3ODF25-0" />
      </root>
    </mxGraphModel>
  </diagram>
</mxfile>
